<mxfile host="app.diagrams.net" modified="2021-06-23T09:23:25.252Z" agent="5.0 (X11)" etag="Yf3w3DcFr1ZQgOSc-Tz8" version="14.8.0" type="github">
  <diagram id="Zk45v5imG6_xdeL_Ea25" name="Page-1">
    <mxGraphModel dx="331" dy="212" grid="1" gridSize="10" guides="0" tooltips="1" connect="1" arrows="1" fold="1" page="1" pageScale="1" pageWidth="1169" pageHeight="827" math="0" shadow="0">
      <root>
        <mxCell id="0" />
        <mxCell id="1" parent="0" />
        <mxCell id="Elw2TsUuv4CK9hlph9lt-5" value="" style="verticalLabelPosition=bottom;verticalAlign=top;html=1;shape=mxgraph.basic.arc;startAngle=0.25636280567399594;endAngle=0.7451294309442458;fillColor=none;rotation=-180;sketch=0;" parent="1" vertex="1">
          <mxGeometry x="170" y="140" width="380" height="365" as="geometry" />
        </mxCell>
        <mxCell id="Elw2TsUuv4CK9hlph9lt-1" value="" style="ellipse;whiteSpace=wrap;html=1;sketch=0;" parent="1" vertex="1">
          <mxGeometry x="170" y="250" width="380" height="140" as="geometry" />
        </mxCell>
        <mxCell id="Elw2TsUuv4CK9hlph9lt-6" value="" style="endArrow=classic;startArrow=classic;html=1;" parent="1" edge="1">
          <mxGeometry width="50" height="50" relative="1" as="geometry">
            <mxPoint x="434" y="228" as="sourcePoint" />
            <mxPoint x="264" y="408" as="targetPoint" />
          </mxGeometry>
        </mxCell>
        <mxCell id="Elw2TsUuv4CK9hlph9lt-7" value="" style="endArrow=classic;startArrow=classic;html=1;shadow=0;sketch=1;" parent="1" edge="1">
          <mxGeometry width="50" height="50" relative="1" as="geometry">
            <mxPoint x="563" y="353" as="sourcePoint" />
            <mxPoint x="163" y="273" as="targetPoint" />
          </mxGeometry>
        </mxCell>
        <mxCell id="Elw2TsUuv4CK9hlph9lt-8" value="" style="endArrow=classic;startArrow=classic;html=1;sketch=1;" parent="1" edge="1">
          <mxGeometry width="50" height="50" relative="1" as="geometry">
            <mxPoint x="434" y="228" as="sourcePoint" />
            <mxPoint x="264" y="408" as="targetPoint" />
          </mxGeometry>
        </mxCell>
        <mxCell id="Elw2TsUuv4CK9hlph9lt-10" value="" style="endArrow=classic;html=1;shadow=0;sketch=1;" parent="1" edge="1">
          <mxGeometry width="50" height="50" relative="1" as="geometry">
            <mxPoint x="354" y="311" as="sourcePoint" />
            <mxPoint x="354" y="111" as="targetPoint" />
          </mxGeometry>
        </mxCell>
        <mxCell id="Elw2TsUuv4CK9hlph9lt-11" value="&lt;font&gt;&lt;b&gt;N&lt;/b&gt;&lt;/font&gt;" style="text;html=1;strokeColor=none;fillColor=none;align=center;verticalAlign=middle;whiteSpace=wrap;rounded=0;sketch=0;fontFamily=Verdana;" parent="1" vertex="1">
          <mxGeometry x="437" y="218" width="10" height="10" as="geometry" />
        </mxCell>
        <mxCell id="Elw2TsUuv4CK9hlph9lt-12" value="E" style="text;html=1;strokeColor=none;fillColor=none;align=center;verticalAlign=middle;whiteSpace=wrap;rounded=0;sketch=0;fontFamily=Verdana;" parent="1" vertex="1">
          <mxGeometry x="565" y="352" width="10" height="10" as="geometry" />
        </mxCell>
        <mxCell id="Elw2TsUuv4CK9hlph9lt-13" value="W" style="text;html=1;strokeColor=none;fillColor=none;align=center;verticalAlign=middle;whiteSpace=wrap;rounded=0;sketch=0;fontFamily=Verdana;" parent="1" vertex="1">
          <mxGeometry x="152" y="263" width="10" height="10" as="geometry" />
        </mxCell>
        <mxCell id="Elw2TsUuv4CK9hlph9lt-14" value="S" style="text;html=1;strokeColor=none;fillColor=none;align=center;verticalAlign=middle;whiteSpace=wrap;rounded=0;sketch=0;fontFamily=Verdana;" parent="1" vertex="1">
          <mxGeometry x="253" y="406" width="10" height="10" as="geometry" />
        </mxCell>
        <mxCell id="Elw2TsUuv4CK9hlph9lt-19" value="" style="curved=1;endArrow=classic;html=1;shadow=0;fontFamily=Verdana;sketch=0;" parent="1" edge="1">
          <mxGeometry width="50" height="50" relative="1" as="geometry">
            <mxPoint x="418" y="245" as="sourcePoint" />
            <mxPoint x="160" y="330" as="targetPoint" />
            <Array as="points">
              <mxPoint x="630" y="280" />
              <mxPoint x="480" y="410" />
              <mxPoint x="190" y="390" />
            </Array>
          </mxGeometry>
        </mxCell>
        <mxCell id="Elw2TsUuv4CK9hlph9lt-21" value="&lt;font style=&quot;font-size: 10px&quot;&gt;azimuth&lt;/font&gt;" style="text;html=1;strokeColor=none;fillColor=none;align=center;verticalAlign=middle;whiteSpace=wrap;rounded=0;sketch=0;fontFamily=Times New Roman;" parent="1" vertex="1">
          <mxGeometry x="380" y="400" width="40" height="10" as="geometry" />
        </mxCell>
        <mxCell id="Elw2TsUuv4CK9hlph9lt-22" value="zenith" style="text;html=1;strokeColor=none;fillColor=none;align=center;verticalAlign=middle;whiteSpace=wrap;rounded=0;sketch=0;fontFamily=Times New Roman;" parent="1" vertex="1">
          <mxGeometry x="353" y="120" width="40" height="10" as="geometry" />
        </mxCell>
        <mxCell id="Elw2TsUuv4CK9hlph9lt-25" value="" style="curved=1;endArrow=classic;html=1;shadow=0;fontFamily=Times New Roman;entryX=0.003;entryY=0.699;entryDx=0;entryDy=0;entryPerimeter=0;startArrow=classic;startFill=1;sketch=0;" parent="1" edge="1">
          <mxGeometry width="50" height="50" relative="1" as="geometry">
            <mxPoint x="255.9999999999999" y="158" as="sourcePoint" />
            <mxPoint x="546.8599999999997" y="251.865" as="targetPoint" />
            <Array as="points">
              <mxPoint x="256" y="158" />
              <mxPoint x="326" y="128" />
              <mxPoint x="436" y="142" />
              <mxPoint x="506" y="188" />
            </Array>
          </mxGeometry>
        </mxCell>
        <mxCell id="Elw2TsUuv4CK9hlph9lt-26" value="360&lt;font style=&quot;font-size: 8px&quot;&gt;&lt;span id=&quot;degree-symbol&quot; class=&quot;font3&quot; style=&quot;font-size: 8px&quot;&gt;°&lt;/span&gt;&lt;/font&gt; &amp;nbsp; &amp;nbsp;&amp;nbsp; &lt;font style=&quot;font-size: 8px&quot;&gt;0&lt;span id=&quot;degree-symbol&quot; class=&quot;font3&quot; style=&quot;font-size: 8px&quot;&gt;°&lt;/span&gt;&lt;/font&gt;" style="text;html=1;strokeColor=none;fillColor=none;align=center;verticalAlign=middle;whiteSpace=wrap;rounded=0;sketch=0;fontFamily=Times New Roman;fontSize=8;" parent="1" vertex="1">
          <mxGeometry x="331" y="101" width="40" height="16" as="geometry" />
        </mxCell>
        <mxCell id="Elw2TsUuv4CK9hlph9lt-27" value="90&lt;span id=&quot;degree-symbol&quot; class=&quot;font3&quot; style=&quot;font-size: 9px;&quot;&gt;°&lt;/span&gt;" style="text;html=1;strokeColor=none;fillColor=none;align=center;verticalAlign=middle;whiteSpace=wrap;rounded=0;sketch=0;fontFamily=Times New Roman;fontSize=9;" parent="1" vertex="1">
          <mxGeometry x="550" y="230" width="12" height="16" as="geometry" />
        </mxCell>
        <mxCell id="Elw2TsUuv4CK9hlph9lt-28" value="270&lt;span id=&quot;degree-symbol&quot; class=&quot;font3&quot; style=&quot;font-size: 9px;&quot;&gt;°&lt;/span&gt;" style="text;html=1;strokeColor=none;fillColor=none;align=center;verticalAlign=middle;whiteSpace=wrap;rounded=0;sketch=0;fontFamily=Times New Roman;fontSize=9;" parent="1" vertex="1">
          <mxGeometry x="240" y="140" width="12" height="16" as="geometry" />
        </mxCell>
        <mxCell id="Elw2TsUuv4CK9hlph9lt-29" value="0&lt;span id=&quot;degree-symbol&quot; class=&quot;font3&quot; style=&quot;font-size: 9px;&quot;&gt;°&lt;/span&gt;" style="text;html=1;strokeColor=none;fillColor=none;align=center;verticalAlign=middle;whiteSpace=wrap;rounded=0;sketch=0;fontFamily=Times New Roman;fontSize=9;" parent="1" vertex="1">
          <mxGeometry x="432" y="232" width="12" height="16" as="geometry" />
        </mxCell>
        <mxCell id="Elw2TsUuv4CK9hlph9lt-30" value="90&lt;span id=&quot;degree-symbol&quot; class=&quot;font3&quot; style=&quot;font-size: 9px;&quot;&gt;°&lt;/span&gt;" style="text;html=1;strokeColor=none;fillColor=none;align=center;verticalAlign=middle;whiteSpace=wrap;rounded=0;sketch=0;fontFamily=Times New Roman;fontSize=9;" parent="1" vertex="1">
          <mxGeometry x="569" y="336" width="12" height="16" as="geometry" />
        </mxCell>
        <mxCell id="Elw2TsUuv4CK9hlph9lt-31" value="180&lt;span id=&quot;degree-symbol&quot; class=&quot;font3&quot; style=&quot;font-size: 9px&quot;&gt;°&lt;/span&gt;" style="text;html=1;strokeColor=none;fillColor=none;align=center;verticalAlign=middle;whiteSpace=wrap;rounded=0;sketch=0;fontFamily=Times New Roman;fontSize=9;" parent="1" vertex="1">
          <mxGeometry x="277" y="399" width="12" height="16" as="geometry" />
        </mxCell>
        <mxCell id="Elw2TsUuv4CK9hlph9lt-32" value="270&lt;span id=&quot;degree-symbol&quot; class=&quot;font3&quot; style=&quot;font-size: 9px&quot;&gt;°&lt;/span&gt;" style="text;html=1;strokeColor=none;fillColor=none;align=center;verticalAlign=middle;whiteSpace=wrap;rounded=0;sketch=0;fontFamily=Times New Roman;fontSize=9;" parent="1" vertex="1">
          <mxGeometry x="155" y="276" width="12" height="16" as="geometry" />
        </mxCell>
        <mxCell id="Elw2TsUuv4CK9hlph9lt-36" value="" style="curved=1;endArrow=classic;html=1;shadow=0;fontFamily=Times New Roman;fontSize=9;exitX=0.96;exitY=0.312;exitDx=0;exitDy=0;exitPerimeter=0;entryX=0.233;entryY=0.07;entryDx=0;entryDy=0;entryPerimeter=0;sketch=1;fillColor=#fff2cc;strokeColor=#d6b656;" parent="1" source="Elw2TsUuv4CK9hlph9lt-1" target="Elw2TsUuv4CK9hlph9lt-1" edge="1">
          <mxGeometry width="50" height="50" relative="1" as="geometry">
            <mxPoint x="410" y="270" as="sourcePoint" />
            <mxPoint x="110" y="190" as="targetPoint" />
            <Array as="points">
              <mxPoint x="545" y="208" />
              <mxPoint x="360" y="170" />
              <mxPoint x="153" y="218" />
            </Array>
          </mxGeometry>
        </mxCell>
        <mxCell id="Elw2TsUuv4CK9hlph9lt-34" value="" style="verticalLabelPosition=bottom;verticalAlign=top;html=1;shape=mxgraph.basic.sun;sketch=1;fontFamily=Times New Roman;fontSize=9;rotation=-15;strokeColor=#d6b656;fillColor=#FFD966;fillStyle=solid;" parent="1" vertex="1">
          <mxGeometry x="390" y="172" width="20" height="20" as="geometry" />
        </mxCell>
        <mxCell id="XZMM7xoyG6K1uBWsO1xi-1" value="" style="html=1;whiteSpace=wrap;aspect=fixed;shape=isoRectangle;rotation=343;fillColor=#d5e8d4;strokeColor=#82b366;opacity=70;" parent="1" vertex="1">
          <mxGeometry x="320" y="300" width="130.57" height="78.34629999999999" as="geometry" />
        </mxCell>
        <mxCell id="XZMM7xoyG6K1uBWsO1xi-2" value="1000x1000m" style="text;html=1;strokeColor=none;fillColor=none;align=center;verticalAlign=middle;whiteSpace=wrap;rounded=0;sketch=0;fontFamily=Times New Roman;fontSize=8;" parent="1" vertex="1">
          <mxGeometry x="421" y="349" width="40" height="10" as="geometry" />
        </mxCell>
        <mxCell id="XZMM7xoyG6K1uBWsO1xi-7" value="" style="endArrow=none;html=1;fontSize=8;strokeWidth=0.2;entryX=0.539;entryY=0.06;entryDx=0;entryDy=0;entryPerimeter=0;exitX=0.058;exitY=0.548;exitDx=0;exitDy=0;exitPerimeter=0;" parent="1" source="XZMM7xoyG6K1uBWsO1xi-1" target="XZMM7xoyG6K1uBWsO1xi-1" edge="1">
          <mxGeometry width="50" height="50" relative="1" as="geometry">
            <mxPoint x="325.0031972364388" y="366.5396915975602" as="sourcePoint" />
            <mxPoint x="382.9072821219077" y="303.0039665794539" as="targetPoint" />
          </mxGeometry>
        </mxCell>
        <mxCell id="XZMM7xoyG6K1uBWsO1xi-8" value="" style="endArrow=none;html=1;fontSize=8;strokeWidth=0.2;entryX=0.587;entryY=0.104;entryDx=0;entryDy=0;entryPerimeter=0;exitX=0.106;exitY=0.596;exitDx=0;exitDy=0;exitPerimeter=0;" parent="1" source="XZMM7xoyG6K1uBWsO1xi-1" target="XZMM7xoyG6K1uBWsO1xi-1" edge="1">
          <mxGeometry width="50" height="50" relative="1" as="geometry">
            <mxPoint x="334.0031972364389" y="368.5396915975602" as="sourcePoint" />
            <mxPoint x="391.9072821219078" y="305.0039665794539" as="targetPoint" />
          </mxGeometry>
        </mxCell>
        <mxCell id="XZMM7xoyG6K1uBWsO1xi-31" value="" style="endArrow=none;html=1;fontSize=8;strokeWidth=0.2;entryX=0.634;entryY=0.151;entryDx=0;entryDy=0;entryPerimeter=0;exitX=0.154;exitY=0.648;exitDx=0;exitDy=0;exitPerimeter=0;" parent="1" source="XZMM7xoyG6K1uBWsO1xi-1" target="XZMM7xoyG6K1uBWsO1xi-1" edge="1">
          <mxGeometry width="50" height="50" relative="1" as="geometry">
            <mxPoint x="342.00319723643884" y="371.53969159756025" as="sourcePoint" />
            <mxPoint x="399.90728212190766" y="308.0039665794539" as="targetPoint" />
          </mxGeometry>
        </mxCell>
        <mxCell id="XZMM7xoyG6K1uBWsO1xi-32" value="" style="endArrow=none;html=1;fontSize=8;strokeWidth=0.2;entryX=0.686;entryY=0.199;entryDx=0;entryDy=0;entryPerimeter=0;exitX=0.202;exitY=0.69;exitDx=0;exitDy=0;exitPerimeter=0;" parent="1" source="XZMM7xoyG6K1uBWsO1xi-1" target="XZMM7xoyG6K1uBWsO1xi-1" edge="1">
          <mxGeometry width="50" height="50" relative="1" as="geometry">
            <mxPoint x="351.00319723643884" y="373.53969159756025" as="sourcePoint" />
            <mxPoint x="408.9072821219079" y="310.00396657945396" as="targetPoint" />
          </mxGeometry>
        </mxCell>
        <mxCell id="XZMM7xoyG6K1uBWsO1xi-33" value="" style="endArrow=none;html=1;fontSize=8;strokeWidth=0.2;entryX=0.737;entryY=0.249;entryDx=0;entryDy=0;entryPerimeter=0;exitX=0.25;exitY=0.738;exitDx=0;exitDy=0;exitPerimeter=0;" parent="1" source="XZMM7xoyG6K1uBWsO1xi-1" target="XZMM7xoyG6K1uBWsO1xi-1" edge="1">
          <mxGeometry width="50" height="50" relative="1" as="geometry">
            <mxPoint x="361.00319723643884" y="374.53969159756025" as="sourcePoint" />
            <mxPoint x="418.90728212190766" y="311.0039665794539" as="targetPoint" />
          </mxGeometry>
        </mxCell>
        <mxCell id="XZMM7xoyG6K1uBWsO1xi-34" value="" style="endArrow=none;html=1;fontSize=8;strokeWidth=0.2;entryX=0.789;entryY=0.297;entryDx=0;entryDy=0;entryPerimeter=0;exitX=0.299;exitY=0.786;exitDx=0;exitDy=0;exitPerimeter=0;" parent="1" source="XZMM7xoyG6K1uBWsO1xi-1" target="XZMM7xoyG6K1uBWsO1xi-1" edge="1">
          <mxGeometry width="50" height="50" relative="1" as="geometry">
            <mxPoint x="370.00319723643884" y="376.53969159756025" as="sourcePoint" />
            <mxPoint x="427.9072821219079" y="313.00396657945396" as="targetPoint" />
          </mxGeometry>
        </mxCell>
        <mxCell id="XZMM7xoyG6K1uBWsO1xi-35" value="" style="endArrow=none;html=1;fontSize=8;strokeWidth=0.2;entryX=0.837;entryY=0.345;entryDx=0;entryDy=0;entryPerimeter=0;exitX=0.349;exitY=0.834;exitDx=0;exitDy=0;exitPerimeter=0;" parent="1" source="XZMM7xoyG6K1uBWsO1xi-1" target="XZMM7xoyG6K1uBWsO1xi-1" edge="1">
          <mxGeometry width="50" height="50" relative="1" as="geometry">
            <mxPoint x="378.00319723643884" y="379.53969159756025" as="sourcePoint" />
            <mxPoint x="435.90728212190766" y="316.0039665794539" as="targetPoint" />
          </mxGeometry>
        </mxCell>
        <mxCell id="XZMM7xoyG6K1uBWsO1xi-36" value="" style="endArrow=none;html=1;fontSize=8;strokeWidth=0.2;entryX=0.888;entryY=0.395;entryDx=0;entryDy=0;entryPerimeter=0;exitX=0.398;exitY=0.881;exitDx=0;exitDy=0;exitPerimeter=0;" parent="1" source="XZMM7xoyG6K1uBWsO1xi-1" target="XZMM7xoyG6K1uBWsO1xi-1" edge="1">
          <mxGeometry width="50" height="50" relative="1" as="geometry">
            <mxPoint x="387.00319723643884" y="381.53969159756025" as="sourcePoint" />
            <mxPoint x="444.9072821219079" y="318.00396657945396" as="targetPoint" />
          </mxGeometry>
        </mxCell>
        <mxCell id="XZMM7xoyG6K1uBWsO1xi-37" value="" style="endArrow=none;html=1;fontSize=8;strokeWidth=0.2;entryX=0.942;entryY=0.45;entryDx=0;entryDy=0;entryPerimeter=0;exitX=0.454;exitY=0.936;exitDx=0;exitDy=0;exitPerimeter=0;" parent="1" source="XZMM7xoyG6K1uBWsO1xi-1" target="XZMM7xoyG6K1uBWsO1xi-1" edge="1">
          <mxGeometry width="50" height="50" relative="1" as="geometry">
            <mxPoint x="398.00319723643884" y="382.53969159756025" as="sourcePoint" />
            <mxPoint x="455.9072821219079" y="319.003966579454" as="targetPoint" />
          </mxGeometry>
        </mxCell>
        <mxCell id="XZMM7xoyG6K1uBWsO1xi-38" value="" style="endArrow=none;html=1;fontSize=8;strokeWidth=0.2;entryX=0.54;entryY=0.941;entryDx=0;entryDy=0;entryPerimeter=0;exitX=0.043;exitY=0.456;exitDx=0;exitDy=0;exitPerimeter=0;" parent="1" edge="1">
          <mxGeometry width="50" height="50" relative="1" as="geometry">
            <mxPoint x="328.00395200560763" y="352.0025035536483" as="sourcePoint" />
            <mxPoint x="401.1712408882098" y="369.3671672928032" as="targetPoint" />
          </mxGeometry>
        </mxCell>
        <mxCell id="XZMM7xoyG6K1uBWsO1xi-40" value="" style="endArrow=none;html=1;fontSize=8;strokeWidth=0.2;exitX=0.108;exitY=0.401;exitDx=0;exitDy=0;exitPerimeter=0;entryX=0.587;entryY=0.894;entryDx=0;entryDy=0;entryPerimeter=0;" parent="1" source="XZMM7xoyG6K1uBWsO1xi-1" edge="1">
          <mxGeometry width="50" height="50" relative="1" as="geometry">
            <mxPoint x="334.9965620576368" y="347.0039237592972" as="sourcePoint" />
            <mxPoint x="407.17328901093936" y="364.3715653917787" as="targetPoint" />
          </mxGeometry>
        </mxCell>
        <mxCell id="XZMM7xoyG6K1uBWsO1xi-46" value="" style="endArrow=none;html=1;fontSize=8;strokeWidth=0.2;entryX=0.54;entryY=0.941;entryDx=0;entryDy=0;entryPerimeter=0;exitX=0.152;exitY=0.352;exitDx=0;exitDy=0;exitPerimeter=0;" parent="1" source="XZMM7xoyG6K1uBWsO1xi-1" edge="1">
          <mxGeometry width="50" height="50" relative="1" as="geometry">
            <mxPoint x="338.00395200560763" y="341.2825035536482" as="sourcePoint" />
            <mxPoint x="411.1712408882098" y="358.64716729280315" as="targetPoint" />
          </mxGeometry>
        </mxCell>
        <mxCell id="XZMM7xoyG6K1uBWsO1xi-47" value="" style="endArrow=none;html=1;fontSize=8;strokeWidth=0.2;exitX=0.108;exitY=0.401;exitDx=0;exitDy=0;exitPerimeter=0;entryX=0.698;entryY=0.792;entryDx=0;entryDy=0;entryPerimeter=0;" parent="1" target="XZMM7xoyG6K1uBWsO1xi-1" edge="1">
          <mxGeometry width="50" height="50" relative="1" as="geometry">
            <mxPoint x="344.0703150137691" y="336.0003686154654" as="sourcePoint" />
            <mxPoint x="417.17328901093936" y="353.6515653917787" as="targetPoint" />
          </mxGeometry>
        </mxCell>
        <mxCell id="XZMM7xoyG6K1uBWsO1xi-48" value="" style="endArrow=none;html=1;fontSize=8;strokeWidth=0.2;entryX=0.54;entryY=0.941;entryDx=0;entryDy=0;entryPerimeter=0;exitX=0.043;exitY=0.456;exitDx=0;exitDy=0;exitPerimeter=0;" parent="1" edge="1">
          <mxGeometry width="50" height="50" relative="1" as="geometry">
            <mxPoint x="349.00395200560763" y="330.00250355364824" as="sourcePoint" />
            <mxPoint x="422.1712408882098" y="347.3671672928032" as="targetPoint" />
          </mxGeometry>
        </mxCell>
        <mxCell id="XZMM7xoyG6K1uBWsO1xi-49" value="" style="endArrow=none;html=1;fontSize=8;strokeWidth=0.2;exitX=0.31;exitY=0.203;exitDx=0;exitDy=0;exitPerimeter=0;entryX=0.587;entryY=0.894;entryDx=0;entryDy=0;entryPerimeter=0;" parent="1" source="XZMM7xoyG6K1uBWsO1xi-1" edge="1">
          <mxGeometry width="50" height="50" relative="1" as="geometry">
            <mxPoint x="354.0003150137691" y="324.00036861546533" as="sourcePoint" />
            <mxPoint x="427.10328901093936" y="341.65156539177866" as="targetPoint" />
          </mxGeometry>
        </mxCell>
        <mxCell id="XZMM7xoyG6K1uBWsO1xi-50" value="" style="endArrow=none;html=1;fontSize=8;strokeWidth=0.2;entryX=0.54;entryY=0.941;entryDx=0;entryDy=0;entryPerimeter=0;exitX=0.043;exitY=0.456;exitDx=0;exitDy=0;exitPerimeter=0;" parent="1" edge="1">
          <mxGeometry width="50" height="50" relative="1" as="geometry">
            <mxPoint x="359.00395200560763" y="319.2825035536482" as="sourcePoint" />
            <mxPoint x="432.1712408882098" y="336.64716729280315" as="targetPoint" />
          </mxGeometry>
        </mxCell>
        <mxCell id="XZMM7xoyG6K1uBWsO1xi-51" value="" style="endArrow=none;html=1;fontSize=8;strokeWidth=0.2;exitX=0.108;exitY=0.401;exitDx=0;exitDy=0;exitPerimeter=0;entryX=0.587;entryY=0.894;entryDx=0;entryDy=0;entryPerimeter=0;" parent="1" edge="1">
          <mxGeometry width="50" height="50" relative="1" as="geometry">
            <mxPoint x="364.0003150137691" y="314.0003686154654" as="sourcePoint" />
            <mxPoint x="437.10328901093936" y="331.6515653917787" as="targetPoint" />
          </mxGeometry>
        </mxCell>
        <mxCell id="XZMM7xoyG6K1uBWsO1xi-52" value="" style="endArrow=none;html=1;fontSize=8;strokeWidth=0.2;entryX=0.587;entryY=0.894;entryDx=0;entryDy=0;entryPerimeter=0;exitX=0.454;exitY=0.062;exitDx=0;exitDy=0;exitPerimeter=0;" parent="1" source="XZMM7xoyG6K1uBWsO1xi-1" edge="1">
          <mxGeometry width="50" height="50" relative="1" as="geometry">
            <mxPoint x="369" y="308" as="sourcePoint" />
            <mxPoint x="442.10328901093936" y="325.6515653917787" as="targetPoint" />
          </mxGeometry>
        </mxCell>
        <mxCell id="XZMM7xoyG6K1uBWsO1xi-53" value="360&lt;span id=&quot;degree-symbol&quot; class=&quot;font3&quot; style=&quot;font-size: 9px&quot;&gt;°&lt;/span&gt;" style="text;html=1;strokeColor=none;fillColor=none;align=center;verticalAlign=middle;whiteSpace=wrap;rounded=0;sketch=0;fontFamily=Times New Roman;fontSize=9;" parent="1" vertex="1">
          <mxGeometry x="400" y="230" width="12" height="16" as="geometry" />
        </mxCell>
        <mxCell id="XZMM7xoyG6K1uBWsO1xi-54" value="&lt;font&gt;&lt;b&gt;SR&lt;/b&gt;&lt;/font&gt;" style="text;html=1;strokeColor=none;fillColor=none;align=center;verticalAlign=middle;whiteSpace=wrap;rounded=0;fontSize=8;fontColor=#D6B656;" parent="1" vertex="1">
          <mxGeometry x="522" y="279" width="12" height="4" as="geometry" />
        </mxCell>
        <mxCell id="XZMM7xoyG6K1uBWsO1xi-55" value="&lt;font&gt;&lt;b&gt;SS&lt;/b&gt;&lt;/font&gt;" style="text;html=1;strokeColor=none;fillColor=none;align=center;verticalAlign=middle;whiteSpace=wrap;rounded=0;fontSize=8;fontColor=#D6B656;" parent="1" vertex="1">
          <mxGeometry x="259" y="246" width="13" height="9" as="geometry" />
        </mxCell>
        <mxCell id="XZMM7xoyG6K1uBWsO1xi-57" value="" style="ellipse;whiteSpace=wrap;html=1;fontSize=8;strokeColor=none;fillColor=#D6B656;" parent="1" vertex="1">
          <mxGeometry x="258" y="257" width="5.9055" height="5.9055" as="geometry" />
        </mxCell>
        <mxCell id="XZMM7xoyG6K1uBWsO1xi-58" value="" style="ellipse;whiteSpace=wrap;html=1;fontSize=8;strokeColor=none;fillColor=#D6B656;" parent="1" vertex="1">
          <mxGeometry x="532" y="289" width="5.9055" height="5.9055" as="geometry" />
        </mxCell>
        <mxCell id="XZMM7xoyG6K1uBWsO1xi-164" value="" style="endArrow=none;html=1;fontSize=8;fontColor=none;strokeWidth=1;shadow=0;sketch=1;exitX=0.121;exitY=0.771;exitDx=0;exitDy=0;exitPerimeter=0;" parent="1" edge="1" source="Elw2TsUuv4CK9hlph9lt-1">
          <mxGeometry width="50" height="50" relative="1" as="geometry">
            <mxPoint x="220" y="350" as="sourcePoint" />
            <mxPoint x="230" y="330" as="targetPoint" />
          </mxGeometry>
        </mxCell>
        <mxCell id="XZMM7xoyG6K1uBWsO1xi-165" value="" style="endArrow=none;html=1;fontSize=8;fontColor=none;strokeWidth=1;shadow=0;sketch=1;" parent="1" edge="1">
          <mxGeometry width="50" height="50" relative="1" as="geometry">
            <mxPoint x="270" y="310" as="sourcePoint" />
            <mxPoint x="250" y="340" as="targetPoint" />
          </mxGeometry>
        </mxCell>
        <mxCell id="XZMM7xoyG6K1uBWsO1xi-166" value="" style="endArrow=none;html=1;fontSize=8;fontColor=none;strokeWidth=1;shadow=0;sketch=1;" parent="1" edge="1">
          <mxGeometry width="50" height="50" relative="1" as="geometry">
            <mxPoint x="242" y="327" as="sourcePoint" />
            <mxPoint x="250" y="340" as="targetPoint" />
          </mxGeometry>
        </mxCell>
        <mxCell id="XZMM7xoyG6K1uBWsO1xi-167" value="" style="endArrow=none;html=1;fontSize=8;fontColor=none;strokeWidth=1;shadow=0;sketch=1;exitX=0.332;exitY=0.793;exitDx=0;exitDy=0;exitPerimeter=0;" parent="1" edge="1" source="Elw2TsUuv4CK9hlph9lt-1">
          <mxGeometry width="50" height="50" relative="1" as="geometry">
            <mxPoint x="290" y="350" as="sourcePoint" />
            <mxPoint x="270" y="310" as="targetPoint" />
          </mxGeometry>
        </mxCell>
        <mxCell id="XZMM7xoyG6K1uBWsO1xi-168" value="" style="endArrow=none;html=1;fontSize=8;fontColor=none;strokeWidth=1;shadow=0;sketch=1;" parent="1" edge="1">
          <mxGeometry width="50" height="50" relative="1" as="geometry">
            <mxPoint x="230" y="330" as="sourcePoint" />
            <mxPoint x="235" y="340" as="targetPoint" />
          </mxGeometry>
        </mxCell>
        <mxCell id="XZMM7xoyG6K1uBWsO1xi-169" value="" style="endArrow=none;html=1;fontSize=8;fontColor=none;strokeWidth=1;shadow=0;sketch=1;" parent="1" edge="1">
          <mxGeometry width="50" height="50" relative="1" as="geometry">
            <mxPoint x="235" y="340" as="sourcePoint" />
            <mxPoint x="242" y="327" as="targetPoint" />
          </mxGeometry>
        </mxCell>
        <mxCell id="XZMM7xoyG6K1uBWsO1xi-170" value="" style="endArrow=none;html=1;fontSize=8;fontColor=none;strokeWidth=1;shadow=0;sketch=1;exitX=0.068;exitY=0.686;exitDx=0;exitDy=0;exitPerimeter=0;" parent="1" edge="1" source="Elw2TsUuv4CK9hlph9lt-1">
          <mxGeometry width="50" height="50" relative="1" as="geometry">
            <mxPoint x="200" y="350" as="sourcePoint" />
            <mxPoint x="230" y="320" as="targetPoint" />
          </mxGeometry>
        </mxCell>
        <mxCell id="XZMM7xoyG6K1uBWsO1xi-171" value="" style="endArrow=none;html=1;fontSize=8;fontColor=none;strokeWidth=1;shadow=0;sketch=1;" parent="1" edge="1">
          <mxGeometry width="50" height="50" relative="1" as="geometry">
            <mxPoint x="239" y="332" as="sourcePoint" />
            <mxPoint x="230" y="320" as="targetPoint" />
          </mxGeometry>
        </mxCell>
        <mxCell id="XZMM7xoyG6K1uBWsO1xi-172" value="" style="endArrow=none;html=1;fontSize=8;fontColor=none;strokeWidth=1;shadow=0;sketch=1;" parent="1" edge="1">
          <mxGeometry width="50" height="50" relative="1" as="geometry">
            <mxPoint x="190" y="330" as="sourcePoint" />
            <mxPoint x="200" y="320" as="targetPoint" />
          </mxGeometry>
        </mxCell>
        <mxCell id="XZMM7xoyG6K1uBWsO1xi-173" value="" style="endArrow=none;html=1;fontSize=8;fontColor=none;strokeWidth=1;shadow=0;sketch=1;" parent="1" edge="1">
          <mxGeometry width="50" height="50" relative="1" as="geometry">
            <mxPoint x="207" y="325" as="sourcePoint" />
            <mxPoint x="200" y="320" as="targetPoint" />
          </mxGeometry>
        </mxCell>
        <mxCell id="XZMM7xoyG6K1uBWsO1xi-174" value="" style="endArrow=none;html=1;fontSize=8;fontColor=none;strokeWidth=1;shadow=0;sketch=1;" parent="1" edge="1">
          <mxGeometry width="50" height="50" relative="1" as="geometry">
            <mxPoint x="207" y="325" as="sourcePoint" />
            <mxPoint x="232" y="296" as="targetPoint" />
          </mxGeometry>
        </mxCell>
        <mxCell id="XZMM7xoyG6K1uBWsO1xi-175" value="" style="endArrow=none;html=1;fontSize=8;fontColor=none;strokeWidth=1;shadow=0;sketch=1;entryX=0.163;entryY=0.329;entryDx=0;entryDy=0;entryPerimeter=0;" parent="1" edge="1" target="Elw2TsUuv4CK9hlph9lt-1">
          <mxGeometry width="50" height="50" relative="1" as="geometry">
            <mxPoint x="250" y="320" as="sourcePoint" />
            <mxPoint x="229" y="306" as="targetPoint" />
          </mxGeometry>
        </mxCell>
        <mxCell id="XZMM7xoyG6K1uBWsO1xi-176" value="" style="endArrow=none;html=1;fontSize=8;fontColor=none;strokeWidth=1;shadow=0;sketch=1;" parent="1" edge="1">
          <mxGeometry width="50" height="50" relative="1" as="geometry">
            <mxPoint x="250" y="320" as="sourcePoint" />
            <mxPoint x="260" y="316" as="targetPoint" />
          </mxGeometry>
        </mxCell>
        <mxCell id="XZMM7xoyG6K1uBWsO1xi-177" value="" style="endArrow=none;html=1;fontSize=8;fontColor=none;strokeWidth=1;shadow=0;sketch=1;" parent="1" edge="1">
          <mxGeometry width="50" height="50" relative="1" as="geometry">
            <mxPoint x="264" y="318" as="sourcePoint" />
            <mxPoint x="260" y="316" as="targetPoint" />
          </mxGeometry>
        </mxCell>
        <mxCell id="XZMM7xoyG6K1uBWsO1xi-178" value="" style="endArrow=none;html=1;fontSize=8;fontColor=none;strokeWidth=1;shadow=0;sketch=1;" parent="1" edge="1">
          <mxGeometry width="50" height="50" relative="1" as="geometry">
            <mxPoint x="290" y="330" as="sourcePoint" />
            <mxPoint x="277" y="323" as="targetPoint" />
          </mxGeometry>
        </mxCell>
        <mxCell id="XZMM7xoyG6K1uBWsO1xi-179" value="" style="endArrow=none;html=1;fontSize=8;fontColor=none;strokeWidth=1;shadow=0;sketch=1;" parent="1" edge="1">
          <mxGeometry width="50" height="50" relative="1" as="geometry">
            <mxPoint x="202" y="321" as="sourcePoint" />
            <mxPoint x="210" y="314" as="targetPoint" />
          </mxGeometry>
        </mxCell>
        <mxCell id="XZMM7xoyG6K1uBWsO1xi-180" value="" style="endArrow=none;html=1;fontSize=8;fontColor=none;strokeWidth=1;shadow=0;sketch=1;" parent="1" edge="1">
          <mxGeometry width="50" height="50" relative="1" as="geometry">
            <mxPoint x="290" y="330" as="sourcePoint" />
            <mxPoint x="301" y="316" as="targetPoint" />
          </mxGeometry>
        </mxCell>
        <mxCell id="XZMM7xoyG6K1uBWsO1xi-181" value="" style="endArrow=none;html=1;fontSize=8;fontColor=none;strokeWidth=1;shadow=0;sketch=1;exitX=0.411;exitY=0.614;exitDx=0;exitDy=0;exitPerimeter=0;entryX=0.345;entryY=0.471;entryDx=0;entryDy=0;entryPerimeter=0;" parent="1" edge="1" target="Elw2TsUuv4CK9hlph9lt-1" source="Elw2TsUuv4CK9hlph9lt-1">
          <mxGeometry width="50" height="50" relative="1" as="geometry">
            <mxPoint x="319.9999999999998" y="330" as="sourcePoint" />
            <mxPoint x="300" y="320" as="targetPoint" />
          </mxGeometry>
        </mxCell>
        <mxCell id="XZMM7xoyG6K1uBWsO1xi-182" value="" style="endArrow=none;html=1;fontSize=8;fontColor=none;strokeWidth=1;shadow=0;sketch=1;exitX=0.113;exitY=0.471;exitDx=0;exitDy=0;exitPerimeter=0;" parent="1" edge="1" source="Elw2TsUuv4CK9hlph9lt-1">
          <mxGeometry width="50" height="50" relative="1" as="geometry">
            <mxPoint x="217" y="316" as="sourcePoint" />
            <mxPoint x="210" y="314" as="targetPoint" />
          </mxGeometry>
        </mxCell>
        <mxCell id="XZMM7xoyG6K1uBWsO1xi-186" value="" style="endArrow=none;html=1;fontSize=8;fontColor=none;strokeWidth=1;shadow=0;sketch=1;entryX=0.384;entryY=0.329;entryDx=0;entryDy=0;entryPerimeter=0;exitX=0.324;exitY=0.136;exitDx=0;exitDy=0;exitPerimeter=0;" parent="1" edge="1" target="Elw2TsUuv4CK9hlph9lt-1" source="Elw2TsUuv4CK9hlph9lt-1">
          <mxGeometry width="50" height="50" relative="1" as="geometry">
            <mxPoint x="290" y="280" as="sourcePoint" />
            <mxPoint x="318" y="299" as="targetPoint" />
          </mxGeometry>
        </mxCell>
        <mxCell id="XZMM7xoyG6K1uBWsO1xi-187" value="" style="endArrow=none;html=1;fontSize=8;fontColor=none;strokeWidth=1;shadow=0;sketch=1;exitX=0.276;exitY=0.457;exitDx=0;exitDy=0;exitPerimeter=0;" parent="1" edge="1" source="Elw2TsUuv4CK9hlph9lt-1">
          <mxGeometry width="50" height="50" relative="1" as="geometry">
            <mxPoint x="280" y="310" as="sourcePoint" />
            <mxPoint x="294" y="303" as="targetPoint" />
          </mxGeometry>
        </mxCell>
        <mxCell id="XZMM7xoyG6K1uBWsO1xi-188" value="" style="endArrow=none;html=1;fontSize=8;fontColor=none;strokeWidth=1;shadow=0;sketch=1;" parent="1" edge="1">
          <mxGeometry width="50" height="50" relative="1" as="geometry">
            <mxPoint x="294" y="303" as="sourcePoint" />
            <mxPoint x="308" y="308" as="targetPoint" />
          </mxGeometry>
        </mxCell>
        <mxCell id="8PXKgol_1JgyileDhhbR-13" value="" style="endArrow=none;html=1;sourcePerimeterSpacing=0;targetPerimeterSpacing=0;strokeColor=#FFFFFF;strokeWidth=3.5;exitX=0.221;exitY=0.3;exitDx=0;exitDy=0;exitPerimeter=0;entryX=0.312;entryY=0.028;entryDx=0;entryDy=0;entryPerimeter=0;" edge="1" parent="1" source="Elw2TsUuv4CK9hlph9lt-1" target="XZMM7xoyG6K1uBWsO1xi-1">
          <mxGeometry width="50" height="50" relative="1" as="geometry">
            <mxPoint x="260" y="290" as="sourcePoint" />
            <mxPoint x="350" y="311" as="targetPoint" />
          </mxGeometry>
        </mxCell>
        <mxCell id="XZMM7xoyG6K1uBWsO1xi-183" value="" style="endArrow=none;html=1;fontSize=8;fontColor=none;strokeWidth=1;shadow=0;sketch=1;" parent="1" edge="1">
          <mxGeometry width="50" height="50" relative="1" as="geometry">
            <mxPoint x="243" y="306" as="sourcePoint" />
            <mxPoint x="260" y="290" as="targetPoint" />
          </mxGeometry>
        </mxCell>
        <mxCell id="XZMM7xoyG6K1uBWsO1xi-184" value="" style="endArrow=none;html=1;fontSize=8;fontColor=none;strokeWidth=1;shadow=0;sketch=1;" parent="1" edge="1">
          <mxGeometry width="50" height="50" relative="1" as="geometry">
            <mxPoint x="260" y="290" as="sourcePoint" />
            <mxPoint x="270" y="300" as="targetPoint" />
          </mxGeometry>
        </mxCell>
        <mxCell id="XZMM7xoyG6K1uBWsO1xi-185" value="" style="endArrow=none;html=1;fontSize=8;fontColor=none;strokeWidth=1;shadow=0;sketch=1;" parent="1" edge="1">
          <mxGeometry width="50" height="50" relative="1" as="geometry">
            <mxPoint x="270" y="300" as="sourcePoint" />
            <mxPoint x="293" y="269" as="targetPoint" />
          </mxGeometry>
        </mxCell>
        <mxCell id="XZMM7xoyG6K1uBWsO1xi-189" value="" style="endArrow=none;html=1;fontSize=8;fontColor=none;strokeWidth=1;shadow=0;sketch=1;entryX=0.418;entryY=0.214;entryDx=0;entryDy=0;entryPerimeter=0;" parent="1" edge="1" target="Elw2TsUuv4CK9hlph9lt-1">
          <mxGeometry width="50" height="50" relative="1" as="geometry">
            <mxPoint x="308" y="308" as="sourcePoint" />
            <mxPoint x="329.9999999999998" y="290" as="targetPoint" />
          </mxGeometry>
        </mxCell>
        <mxCell id="XZMM7xoyG6K1uBWsO1xi-190" value="" style="endArrow=none;html=1;fontSize=8;fontColor=none;strokeWidth=1;shadow=0;sketch=1;" parent="1" edge="1">
          <mxGeometry width="50" height="50" relative="1" as="geometry">
            <mxPoint x="329" y="280" as="sourcePoint" />
            <mxPoint x="349.9999999999998" y="310" as="targetPoint" />
          </mxGeometry>
        </mxCell>
        <mxCell id="8PXKgol_1JgyileDhhbR-14" value="" style="shape=image;html=1;verticalAlign=top;verticalLabelPosition=bottom;labelBackgroundColor=#ffffff;imageAspect=0;aspect=fixed;image=https://cdn0.iconfinder.com/data/icons/typicons-2/24/tree-128.png" vertex="1" parent="1">
          <mxGeometry x="310" y="349" width="19" height="19" as="geometry" />
        </mxCell>
        <mxCell id="8PXKgol_1JgyileDhhbR-15" value="" style="shape=image;html=1;verticalAlign=top;verticalLabelPosition=bottom;labelBackgroundColor=#ffffff;imageAspect=0;aspect=fixed;image=https://cdn0.iconfinder.com/data/icons/typicons-2/24/tree-128.png" vertex="1" parent="1">
          <mxGeometry x="319" y="356" width="18" height="18" as="geometry" />
        </mxCell>
        <mxCell id="8PXKgol_1JgyileDhhbR-16" value="" style="shape=image;html=1;verticalAlign=top;verticalLabelPosition=bottom;labelBackgroundColor=#ffffff;imageAspect=0;aspect=fixed;image=https://cdn0.iconfinder.com/data/icons/typicons-2/24/tree-128.png;sketch=1;" vertex="1" parent="1">
          <mxGeometry x="310" y="360" width="18" height="18" as="geometry" />
        </mxCell>
        <mxCell id="8PXKgol_1JgyileDhhbR-20" value="" style="points=[];aspect=fixed;html=1;align=center;shadow=0;dashed=0;image;image=img/lib/allied_telesis/buildings/Building_Cluster.svg;sketch=0;" vertex="1" parent="1">
          <mxGeometry x="340" y="358" width="25.11" height="23" as="geometry" />
        </mxCell>
      </root>
    </mxGraphModel>
  </diagram>
</mxfile>
